<?xml version="1.0" encoding="UTF-8" standalone="no"?>
<!-- Generator: Adobe Illustrator 21.0.0, SVG Export Plug-In . SVG Version: 6.00 Build 0)  -->

<svg
   xmlns:dc="http://purl.org/dc/elements/1.1/"
   xmlns:cc="http://creativecommons.org/ns#"
   xmlns:rdf="http://www.w3.org/1999/02/22-rdf-syntax-ns#"
   xmlns:svg="http://www.w3.org/2000/svg"
   xmlns="http://www.w3.org/2000/svg"
   xmlns:sodipodi="http://sodipodi.sourceforge.net/DTD/sodipodi-0.dtd"
   xmlns:inkscape="http://www.inkscape.org/namespaces/inkscape"
   version="1.1"
   id="Layer_1"
   x="0px"
   y="0px"
   viewBox="0 0 680.31496 529.13386"
   xml:space="preserve"
   sodipodi:docname="BG top.svg"
   width="180mm"
   height="140mm"
   inkscape:version="0.92.3 (2405546, 2018-03-11)"><metadata
   id="metadata59"><rdf:RDF><cc:Work
       rdf:about=""><dc:format>image/svg+xml</dc:format><dc:type
         rdf:resource="http://purl.org/dc/dcmitype/StillImage" /><dc:title></dc:title></cc:Work></rdf:RDF></metadata><defs
   id="defs57" /><sodipodi:namedview
   pagecolor="#ffffff"
   bordercolor="#666666"
   borderopacity="1"
   objecttolerance="10"
   gridtolerance="10"
   guidetolerance="10"
   inkscape:pageopacity="0"
   inkscape:pageshadow="2"
   inkscape:window-width="1920"
   inkscape:window-height="1017"
   id="namedview55"
   showgrid="false"
   units="mm"
   width="1800mm"
   inkscape:zoom="1.1125147"
   inkscape:cx="415.53989"
   inkscape:cy="352.1297"
   inkscape:window-x="-8"
   inkscape:window-y="-8"
   inkscape:window-maximized="1"
   inkscape:current-layer="g52" />
<style
   type="text/css"
   id="style2">
	.st0{fill:url(#SVGID_1_);}
	.st1{fill:url(#SVGID_2_);}
	.st2{fill:#994CC0;}
	.st3{fill:#C162C6;}
	.st4{fill:#9B47B0;}
	.st5{fill:#B657B5;}
	.st6{fill:#9E5BDC;}
</style>
<g
   id="g52"
   transform="translate(-192.58474,-322.56111)">
	<linearGradient
   id="SVGID_1_"
   gradientUnits="userSpaceOnUse"
   x1="241.7507"
   y1="578.39893"
   x2="874.22589"
   y2="578.39893">
		<stop
   offset="0"
   style="stop-color:#D65DAB"
   id="stop4" />
		<stop
   offset="1"
   style="stop-color:#A460D6"
   id="stop6" />
	</linearGradient>
	<path
   class="st0"
   d="m 874.2,822.3 c 0,0 -176,65 -276,-105 0,0 -20,-50 -90,-45 -70,5 -99,-63 -104,-120 -5,-57 -32,-87 -110,-104 -47,-15 -75,-77 -29,-126 h 609 z"
   id="path9"
   style="fill:url(#SVGID_1_)"
   inkscape:connector-curvature="0" />
	<linearGradient
   id="SVGID_2_"
   gradientUnits="userSpaceOnUse"
   x1="261.59039"
   y1="572.12567"
   x2="874.22589"
   y2="572.12567">
		<stop
   offset="0"
   style="stop-color:#C34996"
   id="stop11" />
		<stop
   offset="1"
   style="stop-color:#864ECD"
   id="stop13" />
	</linearGradient>
	<path
   class="st1"
   d="m 874.2,810.3 c 0,0 -161.3,75.8 -211.9,-176.9 -1.2,-6.2 -1.9,-12.5 -2,-18.9 -0.7,-33.1 -13.5,-161.4 -170.1,-182.2 -3,1 -37,-9 -126,3 -87.5,11.8 -127,-57 -87,-112 h 111 c 0,0 2,36 64,27 62,-9 319,-84 343,205 0,0 15,117 79,160 z"
   id="path16"
   style="fill:url(#SVGID_2_)"
   inkscape:connector-curvature="0" />
	<path
   class="st2"
   d="m 874.2,465.3 c 0,0 -36,-54 -40,-143 h 40 z"
   id="path18"
   inkscape:connector-curvature="0"
   style="fill:#994cc0" />
	
	
	
	
	<g
   id="g38">
		<g
   id="g36">
			<g
   id="g30">
				
			</g>
			<g
   id="g34">
				
			</g>
		</g>
	</g>
	
	
	
	
	
	
</g>
</svg>